<?xml version="1.0" encoding="UTF-8" standalone="no"?>
<!-- Generator: Adobe Illustrator 13.0.0, SVG Export Plug-In . SVG Version: 6.00 Build 14948)  -->

<svg
   version="1.2"
   id="Layer_1"
   x="0px"
   y="0px"
   width="513.29993"
   height="340.52625"
   viewBox="0 0 513.29993 340.52624"
   xml:space="preserve"
   sodipodi:docname="sinden.svg"
   inkscape:version="1.3.2 (091e20e, 2023-11-25, custom)"
   xmlns:inkscape="http://www.inkscape.org/namespaces/inkscape"
   xmlns:sodipodi="http://sodipodi.sourceforge.net/DTD/sodipodi-0.dtd"
   xmlns="http://www.w3.org/2000/svg"
   xmlns:svg="http://www.w3.org/2000/svg"><defs
   id="defs29"><clipPath
     clipPathUnits="userSpaceOnUse"
     id="clipPath3065"><path
       inkscape:connector-curvature="0"
       d="m 35.0596,793.33008 h 8.48038 l 6.98829,-28.146 h -8.48039 l -6.98828,28.146"
       id="path3067" /></clipPath><clipPath
     clipPathUnits="userSpaceOnUse"
     id="clipPath3073"><path
       inkscape:connector-curvature="0"
       d="M 0,793.26001 H 612 V -0.06 H 0 Z"
       id="path3075" /></clipPath><linearGradient
     x1="0.14999001"
     y1="0"
     x2="0.39998999"
     y2="0"
     gradientUnits="userSpaceOnUse"
     gradientTransform="matrix(0,-28.146,-19.4688,0,52.52829,793.33008)"
     id="linearGradient3089"><stop
       style="stop-opacity:1;stop-color:#e2e9df"
       offset="0"
       id="stop3091" /><stop
       style="stop-opacity:1;stop-color:#9bc59d"
       offset="1"
       id="stop3093" /></linearGradient><linearGradient
     x1="0.39998999"
     y1="0"
     x2="0.85000998"
     y2="0"
     gradientUnits="userSpaceOnUse"
     gradientTransform="matrix(0,-28.146,-19.4688,0,52.52829,793.33008)"
     id="linearGradient3109"><stop
       style="stop-opacity:1;stop-color:#9bc59d"
       offset="0"
       id="stop3111" /><stop
       style="stop-opacity:1;stop-color:#38984d"
       offset="1"
       id="stop3113" /></linearGradient><clipPath
     clipPathUnits="userSpaceOnUse"
     id="clipPath3121"><path
       inkscape:connector-curvature="0"
       d="m 48.31931,790.01367 h 8.48249 l 5.53897,-21.50488 H 53.8604 l -5.54109,21.50488"
       id="path3123" /></clipPath><linearGradient
     x1="0.14999001"
     y1="0"
     x2="0.39998999"
     y2="0"
     gradientUnits="userSpaceOnUse"
     gradientTransform="matrix(0,-28.1628,-18.0215,0,64.34079,793.35107)"
     id="linearGradient3137"><stop
       style="stop-opacity:1;stop-color:#e2e9df"
       offset="0"
       id="stop3139" /><stop
       style="stop-opacity:1;stop-color:#9bc59d"
       offset="1"
       id="stop3141" /></linearGradient><linearGradient
     x1="0.39998999"
     y1="0"
     x2="0.85000998"
     y2="0"
     gradientUnits="userSpaceOnUse"
     gradientTransform="matrix(0,-28.1628,-18.0215,0,64.34079,793.35107)"
     id="linearGradient3157"><stop
       style="stop-opacity:1;stop-color:#9bc59d"
       offset="0"
       id="stop3159" /><stop
       style="stop-opacity:1;stop-color:#38984d"
       offset="1"
       id="stop3161" /></linearGradient><clipPath
     clipPathUnits="userSpaceOnUse"
     id="clipPath3169"><path
       inkscape:connector-curvature="0"
       d="m 35.0596,793.33008 -8.29303,-33.93506 h 8.49222 l 4.07809,16.71051 -4.27728,17.22455"
       id="path3171" /></clipPath><clipPath
     clipPathUnits="userSpaceOnUse"
     id="clipPath3177"><path
       inkscape:connector-curvature="0"
       d="M 0,793.26001 H 612 V -0.06 H 0 Z"
       id="path3179" /></clipPath><linearGradient
     x1="0.30000001"
     y1="0"
     x2="0.69999999"
     y2="0"
     gradientUnits="userSpaceOnUse"
     gradientTransform="matrix(0,33.9351,16.5703,0,24.7666,759.45251)"
     spreadMethod="pad"
     id="linearGradient3193"><stop
       style="stop-opacity:1;stop-color:#cb7033"
       offset="0"
       id="stop3195" /><stop
       style="stop-opacity:1;stop-color:#8c502d"
       offset="1"
       id="stop3197" /></linearGradient><clipPath
     clipPathUnits="userSpaceOnUse"
     id="clipPath3205"><path
       inkscape:connector-curvature="0"
       d="m 58.61038,786.67969 -0.47859,-1.83008 4.20898,-16.34082 4.74032,18.1709 h -8.47071"
       id="path3207" /></clipPath><linearGradient
     x1="0.30000001"
     y1="0"
     x2="0.69999999"
     y2="0"
     gradientUnits="userSpaceOnUse"
     gradientTransform="matrix(0,18.1709,12.9492,0,56.13177,768.50879)"
     spreadMethod="pad"
     id="linearGradient3221"><stop
       style="stop-opacity:1;stop-color:#cb7033"
       offset="0"
       id="stop3223" /><stop
       style="stop-opacity:1;stop-color:#8c502d"
       offset="1"
       id="stop3225" /></linearGradient><clipPath
     clipPathUnits="userSpaceOnUse"
     id="clipPath3233"><path
       inkscape:connector-curvature="0"
       d="m 48.31931,790.01367 -1.99415,-7.90137 4.20311,-16.92822 2.07422,8.20801 -4.28318,16.62158"
       id="path3235" /></clipPath><linearGradient
     x1="0.30000001"
     y1="0"
     x2="0.69999999"
     y2="0"
     gradientUnits="userSpaceOnUse"
     gradientTransform="matrix(0,24.82961,10.2773,0,44.3252,765.18408)"
     spreadMethod="pad"
     id="linearGradient3249"><stop
       style="stop-opacity:1;stop-color:#cb7033"
       offset="0"
       id="stop3251" /><stop
       style="stop-opacity:1;stop-color:#8c502d"
       offset="1"
       id="stop3253" /></linearGradient></defs><sodipodi:namedview
   id="namedview27"
   pagecolor="#ffffff"
   bordercolor="#666666"
   borderopacity="1.0"
   inkscape:pageshadow="2"
   inkscape:pageopacity="0.0"
   inkscape:pagecheckerboard="0"
   showgrid="false"
   inkscape:zoom="0.6597984"
   inkscape:cx="459.23118"
   inkscape:cy="349.34913"
   inkscape:window-width="1920"
   inkscape:window-height="1009"
   inkscape:window-x="-8"
   inkscape:window-y="-8"
   inkscape:window-maximized="1"
   inkscape:current-layer="Layer_1"
   inkscape:showpageshadow="2"
   inkscape:deskcolor="#d1d1d1" />


<g
   id="g927"
   transform="rotate(-13.884114,171.69393,392.59469)"
   style="fill:#d45500;stroke:#f9f9f9;stroke-width:2;stroke-miterlimit:4;stroke-dasharray:none"><path
     id="path9787"
     style="fill:#d45500;stroke:#f9f9f9;stroke-width:2;stroke-linecap:round;stroke-linejoin:round;stroke-miterlimit:4;stroke-dasharray:none;paint-order:stroke fill markers"
     d="M 219.90219,2.9860188 V 47.530041 A 129.02651,129.02651 0 0 0 94.769763,172.66247 H 50.225741 v 7.50635 H 94.769763 A 129.02651,129.02651 0 0 0 219.90219,305.30195 v 44.54332 h 7.50635 V 305.38286 A 129.02651,129.02651 0 0 0 352.6226,180.16882 h 44.4624 v -7.50635 H 352.55688 A 129.02651,129.02651 0 0 0 351.8453,162.549 h -8.9598 a 120.04365,120.04365 0 0 1 0.70218,10.11347 h -79.37987 l -3.95868,3.75354 3.95868,3.75281 h 79.4261 A 120.04365,120.04365 0 0 1 227.40854,296.3949 v -79.42681 l -3.75282,-3.95869 -3.75353,3.95869 v 79.34445 a 120.04365,120.04365 0 0 1 -116.143,-116.14372 h 79.34373 l 3.95869,-3.75281 -3.95869,-3.75354 h -79.34373 a 120.04365,120.04365 0 0 1 116.143,-116.143004 v 79.343714 l 3.75353,3.95871 3.75282,-3.95871 V 56.517296 a 120.04365,120.04365 0 0 1 86.52716,40.780372 h 11.57704 A 129.02651,129.02651 0 0 0 227.40854,47.534381 V 2.9860188 Z" /><path
     d="m 306.05449,106.66933 h 16.59572 v 46.45914 h -16.59572 z"
     id="path2944"
     style="font-weight:bold;font-size:40px;line-height:1.25;font-family:EngraversGothicW01-Bold;-inkscape-font-specification:'EngraversGothicW01-Bold Bold';white-space:pre;fill:#d45500;stroke:#f9f9f9;stroke-width:2;stroke-miterlimit:4;stroke-dasharray:none" /><path
     d="m 347.86412,124.30668 0.20416,28.74746 h -15.67574 v -46.31049 h 16.9821 l 24.93887,25.58302 v -25.58302 h 15.57369 v 46.31049 h -14.40728 z"
     id="path2946"
     style="font-weight:bold;font-size:40px;line-height:1.25;font-family:EngraversGothicW01-Bold;-inkscape-font-specification:'EngraversGothicW01-Bold Bold';white-space:pre;fill:#d45500;stroke:#f9f9f9;stroke-width:2;stroke-miterlimit:4;stroke-dasharray:none"
     sodipodi:nodetypes="ccccccccccc" /><path
     d="m 539.52057,124.30668 0.20416,28.74746 h -15.67575 v -46.31047 h 16.98212 l 24.9389,25.583 v -25.583 h 15.57364 v 46.31047 h -14.40726 z"
     id="path2946-2"
     style="font-weight:bold;font-size:40px;line-height:1.25;font-family:EngraversGothicW01-Bold;-inkscape-font-specification:'EngraversGothicW01-Bold Bold';white-space:pre;fill:#d45500;stroke:#f9f9f9;stroke-width:2;stroke-miterlimit:4;stroke-dasharray:none"
     sodipodi:nodetypes="ccccccccccc" /><path
     d="m 416.05354,118.23094 0.0511,23.0297 10.16456,-0.10202 c 8.86759,-0.25848 14.79795,-3.3932 14.83841,-11.41277 -0.35277,-9.79029 -8.20565,-11.31759 -15.14465,-11.41278 z m -15.98874,34.81021 v -46.28451 h 26.61262 c 4.83868,0 9.21653,0.58219 13.13354,1.74658 3.99379,1.1644 7.3732,2.79453 10.13815,4.89045 2.76491,2.03769 4.87705,4.4829 6.33632,7.33565 1.53608,2.85276 2.30414,5.93839 2.30414,9.2569 0,3.31852 -0.72967,6.40415 -2.18894,9.2569 -1.45929,2.79455 -3.57139,5.21066 -6.33634,7.24833 -2.68813,2.03771 -6.02912,3.63873 -10.02295,4.80311 -3.917,1.16439 -8.37164,1.74659 -13.36392,1.74659 z"
     id="path2948"
     style="font-weight:bold;font-size:40px;line-height:1.25;font-family:EngraversGothicW01-Bold;-inkscape-font-specification:'EngraversGothicW01-Bold Bold';white-space:pre;fill:#d45500;stroke:#f9f9f9;stroke-width:2;stroke-miterlimit:4;stroke-dasharray:none"
     sodipodi:nodetypes="ccccccccscccscccsc" /><path
     d="m 464.6189,106.75664 h 52.09347 v 10.45351 h -36.20918 v 6.83768 h 29.09111 v 10.24935 h -29.09111 v 7.06554 h 36.4106 v 11.67843 H 464.6189 Z"
     id="path2950"
     style="font-weight:bold;font-size:40px;line-height:1.25;font-family:EngraversGothicW01-Bold;-inkscape-font-specification:'EngraversGothicW01-Bold Bold';white-space:pre;fill:#d45500;stroke:#f9f9f9;stroke-width:2;stroke-miterlimit:4;stroke-dasharray:none"
     sodipodi:nodetypes="ccccccccccccc" /><path
     style="fill:#d45500;stroke:#f9f9f9;stroke-width:2;stroke-linecap:butt;stroke-linejoin:miter;stroke-miterlimit:4;stroke-dasharray:none;stroke-opacity:1"
     d="m 289.19495,121.37332 8.012,-9.45556 c -4.59933,-5.30844 -48.66087,-15.161491 -52.90793,7.86761 -2.08582,12.3773 14.79498,15.29577 24.82991,16.02395 7.28025,0.66485 15.22229,0.57624 14.86908,4.18646 -0.35445,3.46827 -8.92445,4.4015 -15.73527,3.60899 -4.95355,-0.66304 -10.15091,-1.65693 -17.75626,-5.91876 l -7.50672,8.80597 c 6.34397,8.05357 50.90338,15.43259 56.15604,-5.77441 2.79791,-14.78803 -13.87618,-16.53919 -25.40735,-17.32319 -3.37489,-0.61128 -13.93247,0.0749 -13.85857,-3.60901 0.29629,-4.96291 24.33423,-1.91156 29.30507,1.58795 z"
     id="path6854"
     sodipodi:nodetypes="cccccccccccc" /></g></svg>
